<?xml version="1.0" encoding="UTF-8"?>
<svg version="1.1" xmlns="http://www.w3.org/2000/svg" width="225" height="225">
<path d="M0 0 C74.25 0 148.5 0 225 0 C225 74.25 225 148.5 225 225 C150.75 225 76.5 225 0 225 C0 150.75 0 76.5 0 0 Z " fill="#FEFEFE" transform="translate(0,0)"/>
<path d="M0 0 C2.75329021 1.79562405 4.52627461 3.05254922 6 6 C6.41314256 10.6478538 5.78987316 13.24440152 3 17 C2.34 17.33 1.68 17.66 1 18 C0.67 24.6 0.34 31.2 0 38 C2.32357544 37.97643433 2.32357544 37.97643433 4.6940918 37.95239258 C10.44338782 37.89807639 16.19266118 37.86364344 21.94213867 37.83520508 C24.4301332 37.82012239 26.91810117 37.79965346 29.40600586 37.77368164 C32.98297688 37.73727663 36.55959622 37.72026816 40.13671875 37.70703125 C41.80416389 37.68380547 41.80416389 37.68380547 43.5052948 37.66011047 C44.54599625 37.65988388 45.58669769 37.65965729 46.65893555 37.65942383 C48.02794258 37.64943108 48.02794258 37.64943108 49.42460632 37.63923645 C52.5860707 38.08209733 54.42964314 39.13076316 57 41 C59.03120707 44.04681061 59.24659875 44.60118324 59.1953125 48.01171875 C59.18564453 49.14770508 59.18564453 49.14770508 59.17578125 50.30664062 C59.15064453 51.48516602 59.15064453 51.48516602 59.125 52.6875 C59.11597656 53.48478516 59.10695312 54.28207031 59.09765625 55.10351562 C59.07411585 57.069139 59.03824547 59.03460775 59 61 C59.9075 60.9175 60.815 60.835 61.75 60.75 C65 61 65 61 67.16992188 62.54882812 C69.59677393 65.79930767 69.5771458 68.56532347 69.53125 72.46875 C69.5350769 73.186073 69.53890381 73.903396 69.54284668 74.64245605 C69.54556227 76.15536914 69.53822555 77.66832945 69.52148438 79.18115234 C69.50006551 81.49292976 69.52129351 83.80160013 69.546875 86.11328125 C69.54423166 87.58594434 69.53910653 89.0586055 69.53125 90.53125 C69.53934692 91.21989136 69.54744385 91.90853271 69.55578613 92.61804199 C69.49069469 95.96058096 69.19162794 97.74333717 67.16992188 100.45117188 C64.32953273 102.47856035 62.41081613 102.31007419 59 102 C59.02356567 103.05127075 59.02356567 103.05127075 59.04760742 104.1237793 C59.11012412 107.31160351 59.14904381 110.49929851 59.1875 113.6875 C59.21263672 114.79029297 59.23777344 115.89308594 59.26367188 117.02929688 C59.27817383 118.6293457 59.27817383 118.6293457 59.29296875 120.26171875 C59.31653442 121.73064575 59.31653442 121.73064575 59.34057617 123.22924805 C58.93247053 126.5493849 58.02491454 128.34988275 56 131 C53.02881198 132.84202055 50.76942057 133.25317335 47.30067444 133.26742554 C46.36001633 133.27595551 45.41935822 133.28448547 44.45019531 133.29327393 C43.42514893 133.29236755 42.40010254 133.29146118 41.34399414 133.29052734 C39.71656532 133.30060318 39.71656532 133.30060318 38.05625916 133.31088257 C34.46584509 133.32989775 30.87561755 133.33378841 27.28515625 133.3359375 C24.79178286 133.34236237 22.29841024 133.34909049 19.80503845 133.35610962 C14.57712594 133.36809077 9.34926084 133.37187511 4.12133789 133.37060547 C-1.24955071 133.36953654 -6.62015201 133.38363685 -11.9909668 133.41162109 C-18.4730306 133.44491609 -24.95483596 133.45871832 -31.43698311 133.45738602 C-33.90855939 133.45974858 -36.38013823 133.46860872 -38.8516674 133.48405075 C-42.30628108 133.50361581 -45.7599715 133.4979095 -49.21459961 133.48583984 C-50.23762177 133.49707886 -51.26064392 133.50831787 -52.31466675 133.51989746 C-56.6933322 133.48096436 -59.28555304 133.42313747 -63.11158752 131.15713501 C-66.12780374 127.71170893 -66.12096491 124.86236831 -66.09765625 120.45703125 C-66.09443359 119.38388672 -66.09121094 118.31074219 -66.08789062 117.20507812 C-66.07951172 116.08552734 -66.07113281 114.96597656 -66.0625 113.8125 C-66.05573242 112.11577148 -66.05573242 112.11577148 -66.04882812 110.38476562 C-66.03703498 107.58979073 -66.0205765 104.7949218 -66 102 C-66.9075 102.0825 -67.815 102.165 -68.75 102.25 C-72 102 -72 102 -74.16992188 100.45117188 C-76.59677393 97.20069233 -76.5771458 94.43467653 -76.53125 90.53125 C-76.5350769 89.813927 -76.53890381 89.096604 -76.54284668 88.35754395 C-76.54556227 86.84463086 -76.53822555 85.33167055 -76.52148438 83.81884766 C-76.50006551 81.50707024 -76.52129351 79.19839987 -76.546875 76.88671875 C-76.54423166 75.41405566 -76.53910653 73.9413945 -76.53125 72.46875 C-76.53934692 71.78010864 -76.54744385 71.09146729 -76.55578613 70.38195801 C-76.49069469 67.03941904 -76.19162794 65.25666283 -74.16992188 62.54882812 C-71.32953273 60.52143965 -69.41081613 60.68992581 -66 61 C-66.04640625 59.83082031 -66.0928125 58.66164062 -66.140625 57.45703125 C-66.17815594 55.9088798 -66.21455469 54.36070061 -66.25 52.8125 C-66.28351563 52.04357422 -66.31703125 51.27464844 -66.3515625 50.48242188 C-66.42066039 46.45746992 -66.31755003 44.50191276 -64.109375 41.01171875 C-60.92948001 37.97904112 -59.19826348 37.87630743 -54.90771484 37.88647461 C-53.31629166 37.88658791 -53.31629166 37.88658791 -51.69271851 37.88670349 C-49.96923691 37.89444542 -49.96923691 37.89444542 -48.2109375 37.90234375 C-47.03737701 37.9037587 -45.86381653 37.90517365 -44.6546936 37.90663147 C-40.89477015 37.91224311 -37.13490555 37.92479762 -33.375 37.9375 C-30.83073002 37.9425135 -28.28645912 37.94707667 -25.7421875 37.95117188 C-19.49477147 37.96221632 -13.24738994 37.97896582 -7 38 C-7.05194909 34.74870364 -7.147037 31.50004935 -7.25 28.25 C-7.26417969 27.32960938 -7.27835937 26.40921875 -7.29296875 25.4609375 C-7.39791311 20.060681 -7.39791311 20.060681 -9.984375 15.484375 C-10.64953125 14.99453125 -11.3146875 14.5046875 -12 14 C-13.42662219 11.14675563 -13.31033868 9.16545451 -13 6 C-9.24647283 0.36970925 -6.73139654 -0.57045733 0 0 Z " fill="#241E21" transform="translate(116,46)"/>
<path d="M0 0 C1.98 0.99 3.96 1.98 6 3 C4.65481803 8.97858652 1.50708709 13.00283882 -3 17 C-11.80762512 22.41802394 -20.41143402 24.72667371 -30.6953125 22.38671875 C-38.9252322 19.45851848 -45.98393983 13.82748034 -50 6 C-49.6875 3.6875 -49.6875 3.6875 -49 2 C-47.35 1.67 -45.7 1.34 -44 1 C-43.43732422 1.79664063 -43.43732422 1.79664063 -42.86328125 2.609375 C-38.07752999 9.21539941 -34.28827784 13.31424857 -26 15 C-19.28140137 15.66084577 -13.88810549 14.37729127 -8 11 C-4.40607359 7.81279365 -2.0468798 4.32119069 0 0 Z " fill="#F5F4F5" transform="translate(135,143)"/>
<path d="M0 0 C2.8100346 1.79363911 4.50940468 3.01880935 6 6 C6.42071592 9.05920574 6.48514117 11.9467746 6 15 C3.81840855 17.75569447 2.12822506 19.43588747 -1 21 C-5.37959914 21.50533836 -7.51443013 21.27875307 -11.375 19.0625 C-14.39866894 16.19368203 -15.09394423 13.31374699 -15.3125 9.22265625 C-14.76471499 5.32653534 -12.83898983 3.64092077 -10 1 C-6.79826746 -0.60086627 -3.47422941 -0.49917089 0 0 Z " fill="#F9F8F9" transform="translate(148,112)"/>
<path d="M0 0 C3.02508145 1.73602105 5.41790069 3.83580137 7 7 C7.67660495 12.86390959 7.67660495 12.86390959 5.953125 15.7578125 C4.16405507 17.93626824 2.54084375 19.72957812 0 21 C-4.99691647 21.37712577 -7.99067725 21.09290612 -12 18 C-14.6790573 13.98141405 -14.69610694 10.72358279 -14 6 C-10.43657546 0.29852073 -6.63696398 -1.13283986 0 0 Z " fill="#F9F8F8" transform="translate(85,112)"/>
</svg>
